#tb 0: 1/25
0,          0,          0,        1,    92160, 0x591c992e
0,          1,          1,        1,    92160, 0xe7a8cd8b
0,          2,          2,        1,    92160, 0x2e7528bb
0,          3,          3,        1,    92160, 0x92438eae
0,          4,          4,        1,    92160, 0x15cc21b9
0,          5,          5,        1,    92160, 0x3f14a50e
0,          6,          6,        1,    92160, 0xdbc712e7
0,          7,          7,        1,    92160, 0x277b2d3f
0,          8,          8,        1,    92160, 0x05478988
0,          9,          9,        1,    92160, 0x46888b9c
0,         10,         10,        1,    92160, 0xb1f46d1b
0,         11,         11,        1,    92160, 0xa86771fa
0,         12,         12,        1,    92160, 0x1294944a
0,         13,         13,        1,    92160, 0xe134cd44
0,         14,         14,        1,    92160, 0x5fdbf1fb
0,         15,         15,        1,    92160, 0x01f04b2e
0,         16,         16,        1,    92160, 0x50989c28
0,         17,         17,        1,    92160, 0x3202cf37
0,         18,         18,        1,    92160, 0x67fbdb0f
0,         19,         19,        1,    92160, 0x4d453062
0,         20,         20,        1,    92160, 0x799c3e16
0,         21,         21,        1,    92160, 0xdda76a94
0,         22,         22,        1,    92160, 0x392d0fc9
0,         23,         23,        1,    92160, 0x1196e850
0,         24,         24,        1,    92160, 0x8758d8a9
0,         25,         25,        1,    92160, 0xb632c2b3
0,         26,         26,        1,    92160, 0xf3ba5e47
0,         27,         27,        1,    92160, 0x3ae40182
0,         28,         28,        1,    92160, 0xf285e2eb
0,         29,         29,        1,    92160, 0x826aee47
0,         30,         30,        1,    92160, 0xe06ba18b
0,         31,         31,        1,    92160, 0xf34b6ef5
0,         32,         32,        1,    92160, 0xf94045ab
0,         33,         33,        1,    92160, 0xd0ae63f4
0,         34,         34,        1,    92160, 0x4c35afc1
0,         35,         35,        1,    92160, 0x9a150816
0,         36,         36,        1,    92160, 0x1a4214d4
0,         37,         37,        1,    92160, 0x9f042653
0,         38,         38,        1,    92160, 0xf69a40a8
0,         39,         39,        1,    92160, 0xb8462c18
0,         40,         40,        1,    92160, 0xf42d4748
0,         41,         41,        1,    92160, 0x4968dc19
0,         42,         42,        1,    92160, 0xc8e6001f
0,         43,         43,        1,    92160, 0xebb42677
0,         44,         44,        1,    92160, 0x3fb805dd
0,         45,         45,        1,    92160, 0x1953cfc1
0,         46,         46,        1,    92160, 0x633108f4
0,         47,         47,        1,    92160, 0x65aedf42
